# xmcd
#
# Track frame offsets:
#        150
#        18920
#        32928
#        59123
#        78783
#        97043
#        128318
#        151780
#        167680
#        186705
#        213513
#        224240
#        235298
#        252435
#        274143
#
# Disc length: 3691 seconds
#
# Revision: 0
# Processed by: cddbd v1.5.1PL0 Copyright (c) Steve Scherf et al.
# Submitted via: ExactAudioCopy v0.95a5
#
DISCID=dc0e690f
DTITLE=Low - Secret Name
DYEAR=1900
DGENRE=Slow Core
TTITLE0=I Remember
TTITLE1=Starfire
TTITLE2=Two-Step
TTITLE3=Weight of Water
TTITLE4=Missouri
TTITLE5=Don't Understand
TTITLE6=Soon
TTITLE7=Immune
TTITLE8=Lion/Lamb
TTITLE9=Days Of...
TTITLE10=Will the Night
TTITLE11=Home
TTITLE12=Old Man Song
TTITLE13=Last Breath
TTITLE14=
EXTD=
EXTT0=
EXTT1=
EXTT2=
EXTT3=
EXTT4=
EXTT5=
EXTT6=
EXTT7=
EXTT8=
EXTT9=
EXTT10=
EXTT11=
EXTT12=
EXTT13=
EXTT14=
PLAYORDER=
